<svg width="18" height="18" viewBox="0 0 18 18" fill="none" xmlns="http://www.w3.org/2000/svg">
<path fill-rule="evenodd" clip-rule="evenodd" d="M15.563 16.4531H10.1233C9.81279 16.4531 9.56079 16.2011 9.56079 15.8906C9.56079 15.5801 9.81279 15.3281 10.1233 15.3281H15.563C15.8735 15.3281 16.1255 15.5801 16.1255 15.8906C16.1255 16.2011 15.8735 16.4531 15.563 16.4531Z" fill="#47A0E4"/>
<mask id="mask0" style="mask-type:alpha" maskUnits="userSpaceOnUse" x="1" y="2" width="14" height="15">
<path fill-rule="evenodd" clip-rule="evenodd" d="M1.50024 2.25H14.3857V16.4547H1.50024V2.25Z" fill="white"/>
</mask>
<g mask="url(#mask0)">
<path fill-rule="evenodd" clip-rule="evenodd" d="M9.83296 3.76248L2.7717 12.5937C2.64345 12.7542 2.5962 12.9612 2.64345 13.16L3.1542 15.3237L5.43345 15.2952C5.65021 15.293 5.85045 15.1962 5.9832 15.0312C8.39596 12.0125 12.9957 6.25698 13.1262 6.08823C13.2492 5.88873 13.2972 5.60673 13.2327 5.33523C13.1667 5.05698 12.9935 4.82073 12.7437 4.66998C12.6905 4.63323 11.4267 3.65223 11.3877 3.62148C10.9122 3.24048 10.2185 3.30648 9.83296 3.76248ZM2.7102 16.4547C2.44995 16.4547 2.22345 16.2762 2.1627 16.022L1.54845 13.4187C1.4217 12.8795 1.5477 12.323 1.89345 11.891L8.95845 3.05448C8.96145 3.05148 8.9637 3.04773 8.9667 3.04473C9.74145 2.11848 11.1424 1.98198 12.0875 2.74023C12.1249 2.76948 13.3797 3.74448 13.3797 3.74448C13.8357 4.01598 14.1919 4.50123 14.327 5.07573C14.4612 5.64423 14.3637 6.23073 14.051 6.72648C14.0277 6.76323 14.0075 6.79473 6.86145 15.7347C6.5172 16.1637 6.0012 16.4135 5.44695 16.4202L2.7177 16.4547H2.7102Z" fill="#47A0E4"/>
</g>
<path fill-rule="evenodd" clip-rule="evenodd" d="M12.1676 8.76158C12.0476 8.76158 11.9276 8.72333 11.8248 8.64533L7.73581 5.50433C7.48981 5.31533 7.44331 4.96283 7.63231 4.71533C7.82206 4.46933 8.17456 4.42358 8.42131 4.61258L12.5111 7.75283C12.7571 7.94183 12.8036 8.29508 12.6138 8.54183C12.5036 8.68583 12.3363 8.76158 12.1676 8.76158Z" fill="#47A0E4"/>
</svg>
