<?xml version="1.0" encoding="UTF-8"?> <svg xmlns="http://www.w3.org/2000/svg" width="1065" height="653" viewBox="0 0 1065 653" fill="none"><rect opacity="0.5" width="1065" height="653" fill="#F4F4F4"></rect><rect x="111" y="61" width="201" height="69" fill="#6244BB" stroke="#6244BB" stroke-width="2"></rect><rect x="247" y="151" width="201" height="69" fill="#6244BB" stroke="#6244BB" stroke-width="2"></rect><rect x="387" y="241" width="201" height="69" fill="#6244BB" stroke="#6244BB" stroke-width="2"></rect><rect x="534" y="337" width="201" height="69" fill="#6244BB" stroke="#6244BB" stroke-width="2"></rect><rect x="669" y="431" width="201" height="69" fill="#6244BB" stroke="#6244BB" stroke-width="2"></rect><rect x="806" y="523" width="201" height="69" fill="#6244BB" stroke="#6244BB" stroke-width="2"></rect><path d="M159.945 89.5078H162.234C163.51 89.5078 164.375 89.5599 164.828 89.6641C165.51 89.8203 166.065 90.1562 166.492 90.6719C166.919 91.1823 167.133 91.8125 167.133 92.5625C167.133 93.1875 166.984 93.737 166.688 94.2109C166.396 94.6849 165.977 95.0443 165.43 95.2891C164.883 95.5286 164.128 95.651 163.164 95.6562L167.297 101H165.875L161.75 95.6562H161.094V101H159.945V89.5078ZM161.094 90.6328V94.5391L163.07 94.5547C163.836 94.5547 164.401 94.4818 164.766 94.3359C165.135 94.1901 165.422 93.9583 165.625 93.6406C165.833 93.3177 165.938 92.9583 165.938 92.5625C165.938 92.1771 165.833 91.8281 165.625 91.5156C165.417 91.1979 165.143 90.9714 164.805 90.8359C164.466 90.7005 163.904 90.6328 163.117 90.6328H161.094ZM176.578 98.1797L177.5 98.6641C177.198 99.2578 176.849 99.737 176.453 100.102C176.057 100.466 175.612 100.745 175.117 100.938C174.622 101.125 174.062 101.219 173.438 101.219C172.052 101.219 170.969 100.766 170.188 99.8594C169.406 98.9479 169.016 97.9193 169.016 96.7734C169.016 95.6953 169.346 94.7344 170.008 93.8906C170.846 92.8177 171.969 92.2812 173.375 92.2812C174.823 92.2812 175.979 92.8307 176.844 93.9297C177.458 94.7057 177.771 95.6745 177.781 96.8359H170.141C170.161 97.8255 170.477 98.638 171.086 99.2734C171.695 99.9036 172.448 100.219 173.344 100.219C173.776 100.219 174.195 100.143 174.602 99.9922C175.013 99.8411 175.362 99.6406 175.648 99.3906C175.935 99.1406 176.245 98.737 176.578 98.1797ZM176.578 95.8906C176.432 95.3073 176.219 94.8411 175.938 94.4922C175.661 94.1432 175.294 93.862 174.836 93.6484C174.378 93.4349 173.896 93.3281 173.391 93.3281C172.557 93.3281 171.841 93.5964 171.242 94.1328C170.805 94.5234 170.474 95.1094 170.25 95.8906H176.578ZM188.289 92.5V104.109H187.211V99.5391C186.753 100.096 186.237 100.516 185.664 100.797C185.096 101.078 184.474 101.219 183.797 101.219C182.594 101.219 181.565 100.784 180.711 99.9141C179.862 99.0391 179.438 97.9766 179.438 96.7266C179.438 95.5026 179.867 94.4557 180.727 93.5859C181.586 92.7161 182.62 92.2812 183.828 92.2812C184.526 92.2812 185.156 92.4297 185.719 92.7266C186.286 93.0234 186.784 93.4688 187.211 94.0625V92.5H188.289ZM183.914 93.3359C183.305 93.3359 182.742 93.487 182.227 93.7891C181.711 94.0859 181.299 94.5052 180.992 95.0469C180.69 95.5885 180.539 96.1615 180.539 96.7656C180.539 97.3646 180.693 97.9375 181 98.4844C181.307 99.0312 181.719 99.4583 182.234 99.7656C182.755 100.068 183.312 100.219 183.906 100.219C184.505 100.219 185.073 100.068 185.609 99.7656C186.146 99.4635 186.557 99.0547 186.844 98.5391C187.135 98.0234 187.281 97.4427 187.281 96.7969C187.281 95.8125 186.956 94.9896 186.305 94.3281C185.659 93.6667 184.862 93.3359 183.914 93.3359ZM190.609 92.5H191.711V96.4688C191.711 97.4375 191.763 98.1042 191.867 98.4688C192.023 98.9896 192.32 99.401 192.758 99.7031C193.201 100.005 193.727 100.156 194.336 100.156C194.945 100.156 195.461 100.01 195.883 99.7188C196.31 99.4219 196.604 99.0339 196.766 98.5547C196.875 98.2266 196.93 97.5312 196.93 96.4688V92.5H198.047V96.6719C198.047 97.8438 197.909 98.7266 197.633 99.3203C197.362 99.9141 196.951 100.38 196.398 100.719C195.852 101.052 195.164 101.219 194.336 101.219C193.508 101.219 192.815 101.052 192.258 100.719C191.706 100.38 191.292 99.9115 191.016 99.3125C190.745 98.7083 190.609 97.8021 190.609 96.5938V92.5ZM200.867 89C201.117 89 201.331 89.0885 201.508 89.2656C201.685 89.4427 201.773 89.6562 201.773 89.9062C201.773 90.151 201.685 90.362 201.508 90.5391C201.331 90.7161 201.117 90.8047 200.867 90.8047C200.622 90.8047 200.411 90.7161 200.234 90.5391C200.057 90.362 199.969 90.151 199.969 89.9062C199.969 89.6562 200.057 89.4427 200.234 89.2656C200.411 89.0885 200.622 89 200.867 89ZM200.32 92.5H201.422V101H200.32V92.5ZM203.273 92.5H204.391V93.7422C204.724 93.2526 205.076 92.888 205.445 92.6484C205.815 92.4036 206.201 92.2812 206.602 92.2812C206.904 92.2812 207.227 92.3776 207.57 92.5703L207 93.4922C206.771 93.3932 206.578 93.3438 206.422 93.3438C206.057 93.3438 205.706 93.4948 205.367 93.7969C205.029 94.0938 204.771 94.5573 204.594 95.1875C204.458 95.6719 204.391 96.651 204.391 98.125V101H203.273V92.5ZM215.656 98.1797L216.578 98.6641C216.276 99.2578 215.927 99.737 215.531 100.102C215.135 100.466 214.69 100.745 214.195 100.938C213.701 101.125 213.141 101.219 212.516 101.219C211.13 101.219 210.047 100.766 209.266 99.8594C208.484 98.9479 208.094 97.9193 208.094 96.7734C208.094 95.6953 208.424 94.7344 209.086 93.8906C209.924 92.8177 211.047 92.2812 212.453 92.2812C213.901 92.2812 215.057 92.8307 215.922 93.9297C216.536 94.7057 216.849 95.6745 216.859 96.8359H209.219C209.24 97.8255 209.555 98.638 210.164 99.2734C210.773 99.9036 211.526 100.219 212.422 100.219C212.854 100.219 213.273 100.143 213.68 99.9922C214.091 99.8411 214.44 99.6406 214.727 99.3906C215.013 99.1406 215.323 98.737 215.656 98.1797ZM215.656 95.8906C215.51 95.3073 215.297 94.8411 215.016 94.4922C214.74 94.1432 214.372 93.862 213.914 93.6484C213.456 93.4349 212.974 93.3281 212.469 93.3281C211.635 93.3281 210.919 93.5964 210.32 94.1328C209.883 94.5234 209.552 95.1094 209.328 95.8906H215.656ZM218.898 92.5H219.984V93.9688C220.365 93.4271 220.755 93.0312 221.156 92.7812C221.708 92.4479 222.289 92.2812 222.898 92.2812C223.31 92.2812 223.701 92.362 224.07 92.5234C224.44 92.6849 224.742 92.901 224.977 93.1719C225.211 93.4375 225.414 93.8203 225.586 94.3203C225.951 93.6536 226.406 93.1484 226.953 92.8047C227.5 92.4557 228.089 92.2812 228.719 92.2812C229.307 92.2812 229.826 92.4297 230.273 92.7266C230.727 93.0234 231.062 93.4375 231.281 93.9688C231.5 94.5 231.609 95.2969 231.609 96.3594V101H230.492V96.3594C230.492 95.4479 230.427 94.8229 230.297 94.4844C230.167 94.1406 229.943 93.8646 229.625 93.6562C229.312 93.4479 228.938 93.3438 228.5 93.3438C227.969 93.3438 227.482 93.5 227.039 93.8125C226.602 94.125 226.281 94.5417 226.078 95.0625C225.875 95.5833 225.773 96.4531 225.773 97.6719V101H224.688V96.6484C224.688 95.6224 224.622 94.9271 224.492 94.5625C224.367 94.1927 224.146 93.8984 223.828 93.6797C223.51 93.4557 223.133 93.3438 222.695 93.3438C222.19 93.3438 221.716 93.4974 221.273 93.8047C220.836 94.1068 220.51 94.5156 220.297 95.0312C220.089 95.5469 219.984 96.3359 219.984 97.3984V101H218.898V92.5ZM241.078 98.1797L242 98.6641C241.698 99.2578 241.349 99.737 240.953 100.102C240.557 100.466 240.112 100.745 239.617 100.938C239.122 101.125 238.562 101.219 237.938 101.219C236.552 101.219 235.469 100.766 234.688 99.8594C233.906 98.9479 233.516 97.9193 233.516 96.7734C233.516 95.6953 233.846 94.7344 234.508 93.8906C235.346 92.8177 236.469 92.2812 237.875 92.2812C239.323 92.2812 240.479 92.8307 241.344 93.9297C241.958 94.7057 242.271 95.6745 242.281 96.8359H234.641C234.661 97.8255 234.977 98.638 235.586 99.2734C236.195 99.9036 236.948 100.219 237.844 100.219C238.276 100.219 238.695 100.143 239.102 99.9922C239.513 99.8411 239.862 99.6406 240.148 99.3906C240.435 99.1406 240.745 98.737 241.078 98.1797ZM241.078 95.8906C240.932 95.3073 240.719 94.8411 240.438 94.4922C240.161 94.1432 239.794 93.862 239.336 93.6484C238.878 93.4349 238.396 93.3281 237.891 93.3281C237.057 93.3281 236.341 93.5964 235.742 94.1328C235.305 94.5234 234.974 95.1094 234.75 95.8906H241.078ZM244.328 92.5H245.422V94.0234C245.859 93.4401 246.344 93.0052 246.875 92.7188C247.406 92.4271 247.984 92.2812 248.609 92.2812C249.245 92.2812 249.807 92.4427 250.297 92.7656C250.792 93.0885 251.156 93.5234 251.391 94.0703C251.625 94.6172 251.742 95.4688 251.742 96.625V101H250.656V96.9453C250.656 95.9661 250.615 95.3125 250.531 94.9844C250.401 94.4219 250.156 94 249.797 93.7188C249.438 93.4323 248.969 93.2891 248.391 93.2891C247.729 93.2891 247.135 93.5078 246.609 93.9453C246.089 94.3828 245.745 94.9245 245.578 95.5703C245.474 95.9922 245.422 96.763 245.422 97.8828V101H244.328V92.5ZM255.047 89.3438H256.148V92.5H257.883V93.4375H256.148V101H255.047V93.4375H253.555V92.5H255.047V89.3438ZM263.789 93.4297L263.086 94.1562C262.503 93.5885 261.932 93.3047 261.375 93.3047C261.021 93.3047 260.716 93.4219 260.461 93.6562C260.211 93.8906 260.086 94.1641 260.086 94.4766C260.086 94.7526 260.19 95.0156 260.398 95.2656C260.607 95.5208 261.044 95.8203 261.711 96.1641C262.523 96.5859 263.076 96.9922 263.367 97.3828C263.654 97.7786 263.797 98.224 263.797 98.7188C263.797 99.4167 263.552 100.008 263.062 100.492C262.573 100.977 261.961 101.219 261.227 101.219C260.737 101.219 260.268 101.112 259.82 100.898C259.378 100.685 259.01 100.391 258.719 100.016L259.406 99.2344C259.964 99.8646 260.555 100.18 261.18 100.18C261.617 100.18 261.99 100.039 262.297 99.7578C262.604 99.4766 262.758 99.1458 262.758 98.7656C262.758 98.4531 262.656 98.1745 262.453 97.9297C262.25 97.6901 261.792 97.388 261.078 97.0234C260.312 96.6276 259.792 96.237 259.516 95.8516C259.24 95.4661 259.102 95.026 259.102 94.5312C259.102 93.8854 259.32 93.349 259.758 92.9219C260.201 92.4948 260.758 92.2812 261.43 92.2812C262.211 92.2812 262.997 92.6641 263.789 93.4297Z" fill="white"></path><path d="M323.609 179.508L328.969 191H327.734L325.93 187.219H320.977L319.18 191H317.898L323.328 179.508H323.609ZM323.469 181.945L321.492 186.109H325.422L323.469 181.945ZM330.578 182.5H331.672V184.023C332.109 183.44 332.594 183.005 333.125 182.719C333.656 182.427 334.234 182.281 334.859 182.281C335.495 182.281 336.057 182.443 336.547 182.766C337.042 183.089 337.406 183.523 337.641 184.07C337.875 184.617 337.992 185.469 337.992 186.625V191H336.906V186.945C336.906 185.966 336.865 185.312 336.781 184.984C336.651 184.422 336.406 184 336.047 183.719C335.688 183.432 335.219 183.289 334.641 183.289C333.979 183.289 333.385 183.508 332.859 183.945C332.339 184.383 331.995 184.924 331.828 185.57C331.724 185.992 331.672 186.763 331.672 187.883V191H330.578V182.5ZM348.812 182.5V191H347.734V189.539C347.276 190.096 346.76 190.516 346.188 190.797C345.62 191.078 344.997 191.219 344.32 191.219C343.117 191.219 342.089 190.784 341.234 189.914C340.385 189.039 339.961 187.977 339.961 186.727C339.961 185.503 340.391 184.456 341.25 183.586C342.109 182.716 343.143 182.281 344.352 182.281C345.049 182.281 345.68 182.43 346.242 182.727C346.81 183.023 347.307 183.469 347.734 184.062V182.5H348.812ZM344.438 183.336C343.828 183.336 343.266 183.487 342.75 183.789C342.234 184.086 341.823 184.505 341.516 185.047C341.214 185.589 341.062 186.161 341.062 186.766C341.062 187.365 341.216 187.938 341.523 188.484C341.831 189.031 342.242 189.458 342.758 189.766C343.279 190.068 343.836 190.219 344.43 190.219C345.029 190.219 345.596 190.068 346.133 189.766C346.669 189.464 347.081 189.055 347.367 188.539C347.659 188.023 347.805 187.443 347.805 186.797C347.805 185.812 347.479 184.99 346.828 184.328C346.182 183.667 345.385 183.336 344.438 183.336ZM351.117 179.219H352.211V191H351.117V179.219ZM353.57 182.5H354.727L357.648 189.047L360.484 182.5H361.648L356.578 194.109H355.422L357.062 190.359L353.57 182.5ZM367.336 183.43L366.633 184.156C366.049 183.589 365.479 183.305 364.922 183.305C364.568 183.305 364.263 183.422 364.008 183.656C363.758 183.891 363.633 184.164 363.633 184.477C363.633 184.753 363.737 185.016 363.945 185.266C364.154 185.521 364.591 185.82 365.258 186.164C366.07 186.586 366.622 186.992 366.914 187.383C367.201 187.779 367.344 188.224 367.344 188.719C367.344 189.417 367.099 190.008 366.609 190.492C366.12 190.977 365.508 191.219 364.773 191.219C364.284 191.219 363.815 191.112 363.367 190.898C362.924 190.685 362.557 190.391 362.266 190.016L362.953 189.234C363.51 189.865 364.102 190.18 364.727 190.18C365.164 190.18 365.536 190.039 365.844 189.758C366.151 189.477 366.305 189.146 366.305 188.766C366.305 188.453 366.203 188.174 366 187.93C365.797 187.69 365.339 187.388 364.625 187.023C363.859 186.628 363.339 186.237 363.062 185.852C362.786 185.466 362.648 185.026 362.648 184.531C362.648 183.885 362.867 183.349 363.305 182.922C363.747 182.495 364.305 182.281 364.977 182.281C365.758 182.281 366.544 182.664 367.336 183.43ZM369.664 179C369.914 179 370.128 179.089 370.305 179.266C370.482 179.443 370.57 179.656 370.57 179.906C370.57 180.151 370.482 180.362 370.305 180.539C370.128 180.716 369.914 180.805 369.664 180.805C369.419 180.805 369.208 180.716 369.031 180.539C368.854 180.362 368.766 180.151 368.766 179.906C368.766 179.656 368.854 179.443 369.031 179.266C369.208 179.089 369.419 179 369.664 179ZM369.117 182.5H370.219V191H369.117V182.5ZM376.758 183.43L376.055 184.156C375.471 183.589 374.901 183.305 374.344 183.305C373.99 183.305 373.685 183.422 373.43 183.656C373.18 183.891 373.055 184.164 373.055 184.477C373.055 184.753 373.159 185.016 373.367 185.266C373.576 185.521 374.013 185.82 374.68 186.164C375.492 186.586 376.044 186.992 376.336 187.383C376.622 187.779 376.766 188.224 376.766 188.719C376.766 189.417 376.521 190.008 376.031 190.492C375.542 190.977 374.93 191.219 374.195 191.219C373.706 191.219 373.237 191.112 372.789 190.898C372.346 190.685 371.979 190.391 371.688 190.016L372.375 189.234C372.932 189.865 373.523 190.18 374.148 190.18C374.586 190.18 374.958 190.039 375.266 189.758C375.573 189.477 375.727 189.146 375.727 188.766C375.727 188.453 375.625 188.174 375.422 187.93C375.219 187.69 374.76 187.388 374.047 187.023C373.281 186.628 372.76 186.237 372.484 185.852C372.208 185.466 372.07 185.026 372.07 184.531C372.07 183.885 372.289 183.349 372.727 182.922C373.169 182.495 373.727 182.281 374.398 182.281C375.18 182.281 375.966 182.664 376.758 183.43Z" fill="white"></path><path d="M462.766 281V269.508H465.148C466.867 269.508 468.115 269.646 468.891 269.922C470.005 270.312 470.875 270.99 471.5 271.953C472.13 272.917 472.445 274.065 472.445 275.398C472.445 276.549 472.195 277.562 471.695 278.438C471.201 279.312 470.555 279.958 469.758 280.375C468.966 280.792 467.854 281 466.422 281H462.766ZM463.867 279.914H465.195C466.784 279.914 467.885 279.815 468.5 279.617C469.365 279.336 470.044 278.831 470.539 278.102C471.034 277.367 471.281 276.471 471.281 275.414C471.281 274.305 471.013 273.357 470.477 272.57C469.94 271.784 469.193 271.245 468.234 270.953C467.516 270.734 466.331 270.625 464.68 270.625H463.867V279.914ZM481.648 278.18L482.57 278.664C482.268 279.258 481.919 279.737 481.523 280.102C481.128 280.466 480.682 280.745 480.188 280.938C479.693 281.125 479.133 281.219 478.508 281.219C477.122 281.219 476.039 280.766 475.258 279.859C474.477 278.948 474.086 277.919 474.086 276.773C474.086 275.695 474.417 274.734 475.078 273.891C475.917 272.818 477.039 272.281 478.445 272.281C479.893 272.281 481.049 272.831 481.914 273.93C482.529 274.706 482.841 275.674 482.852 276.836H475.211C475.232 277.826 475.547 278.638 476.156 279.273C476.766 279.904 477.518 280.219 478.414 280.219C478.846 280.219 479.266 280.143 479.672 279.992C480.083 279.841 480.432 279.641 480.719 279.391C481.005 279.141 481.315 278.737 481.648 278.18ZM481.648 275.891C481.503 275.307 481.289 274.841 481.008 274.492C480.732 274.143 480.365 273.862 479.906 273.648C479.448 273.435 478.966 273.328 478.461 273.328C477.628 273.328 476.911 273.596 476.312 274.133C475.875 274.523 475.544 275.109 475.32 275.891H481.648ZM489.172 273.43L488.469 274.156C487.885 273.589 487.315 273.305 486.758 273.305C486.404 273.305 486.099 273.422 485.844 273.656C485.594 273.891 485.469 274.164 485.469 274.477C485.469 274.753 485.573 275.016 485.781 275.266C485.99 275.521 486.427 275.82 487.094 276.164C487.906 276.586 488.458 276.992 488.75 277.383C489.036 277.779 489.18 278.224 489.18 278.719C489.18 279.417 488.935 280.008 488.445 280.492C487.956 280.977 487.344 281.219 486.609 281.219C486.12 281.219 485.651 281.112 485.203 280.898C484.76 280.685 484.393 280.391 484.102 280.016L484.789 279.234C485.346 279.865 485.938 280.18 486.562 280.18C487 280.18 487.372 280.039 487.68 279.758C487.987 279.477 488.141 279.146 488.141 278.766C488.141 278.453 488.039 278.174 487.836 277.93C487.633 277.69 487.174 277.388 486.461 277.023C485.695 276.628 485.174 276.237 484.898 275.852C484.622 275.466 484.484 275.026 484.484 274.531C484.484 273.885 484.703 273.349 485.141 272.922C485.583 272.495 486.141 272.281 486.812 272.281C487.594 272.281 488.38 272.664 489.172 273.43ZM491.5 269C491.75 269 491.964 269.089 492.141 269.266C492.318 269.443 492.406 269.656 492.406 269.906C492.406 270.151 492.318 270.362 492.141 270.539C491.964 270.716 491.75 270.805 491.5 270.805C491.255 270.805 491.044 270.716 490.867 270.539C490.69 270.362 490.602 270.151 490.602 269.906C490.602 269.656 490.69 269.443 490.867 269.266C491.044 269.089 491.255 269 491.5 269ZM490.953 272.5H492.055V281H490.953V272.5ZM501.641 272.5H502.742V279.273C502.742 280.466 502.638 281.339 502.43 281.891C502.143 282.672 501.646 283.273 500.938 283.695C500.229 284.117 499.378 284.328 498.383 284.328C497.654 284.328 496.997 284.224 496.414 284.016C495.836 283.812 495.365 283.536 495 283.188C494.635 282.844 494.299 282.339 493.992 281.672H495.18C495.503 282.234 495.919 282.651 496.43 282.922C496.94 283.193 497.573 283.328 498.328 283.328C499.073 283.328 499.701 283.188 500.211 282.906C500.727 282.63 501.094 282.281 501.312 281.859C501.531 281.438 501.641 280.758 501.641 279.82V279.383C501.229 279.904 500.727 280.305 500.133 280.586C499.539 280.862 498.909 281 498.242 281C497.461 281 496.727 280.807 496.039 280.422C495.352 280.031 494.82 279.508 494.445 278.852C494.07 278.195 493.883 277.474 493.883 276.688C493.883 275.901 494.078 275.169 494.469 274.492C494.859 273.81 495.398 273.271 496.086 272.875C496.779 272.479 497.508 272.281 498.273 272.281C498.909 272.281 499.5 272.414 500.047 272.68C500.599 272.94 501.13 273.372 501.641 273.977V272.5ZM498.414 273.336C497.794 273.336 497.219 273.487 496.688 273.789C496.156 274.086 495.74 274.5 495.438 275.031C495.135 275.557 494.984 276.128 494.984 276.742C494.984 277.674 495.297 278.445 495.922 279.055C496.547 279.664 497.357 279.969 498.352 279.969C499.357 279.969 500.164 279.667 500.773 279.062C501.388 278.458 501.695 277.664 501.695 276.68C501.695 276.039 501.555 275.469 501.273 274.969C500.992 274.464 500.594 274.065 500.078 273.773C499.562 273.482 499.008 273.336 498.414 273.336ZM505.086 272.5H506.18V274.023C506.617 273.44 507.102 273.005 507.633 272.719C508.164 272.427 508.742 272.281 509.367 272.281C510.003 272.281 510.565 272.443 511.055 272.766C511.549 273.089 511.914 273.523 512.148 274.07C512.383 274.617 512.5 275.469 512.5 276.625V281H511.414V276.945C511.414 275.966 511.372 275.312 511.289 274.984C511.159 274.422 510.914 274 510.555 273.719C510.195 273.432 509.727 273.289 509.148 273.289C508.487 273.289 507.893 273.508 507.367 273.945C506.846 274.383 506.503 274.924 506.336 275.57C506.232 275.992 506.18 276.763 506.18 277.883V281H505.086V272.5Z" fill="white"></path><path d="M743.461 460.625V459.508H749.766V460.625H747.203V471H746.031V460.625H743.461ZM758.391 468.18L759.312 468.664C759.01 469.258 758.661 469.737 758.266 470.102C757.87 470.466 757.424 470.745 756.93 470.938C756.435 471.125 755.875 471.219 755.25 471.219C753.865 471.219 752.781 470.766 752 469.859C751.219 468.948 750.828 467.919 750.828 466.773C750.828 465.695 751.159 464.734 751.82 463.891C752.659 462.818 753.781 462.281 755.188 462.281C756.635 462.281 757.792 462.831 758.656 463.93C759.271 464.706 759.583 465.674 759.594 466.836H751.953C751.974 467.826 752.289 468.638 752.898 469.273C753.508 469.904 754.26 470.219 755.156 470.219C755.589 470.219 756.008 470.143 756.414 469.992C756.826 469.841 757.174 469.641 757.461 469.391C757.747 469.141 758.057 468.737 758.391 468.18ZM758.391 465.891C758.245 465.307 758.031 464.841 757.75 464.492C757.474 464.143 757.107 463.862 756.648 463.648C756.19 463.435 755.708 463.328 755.203 463.328C754.37 463.328 753.654 463.596 753.055 464.133C752.617 464.523 752.286 465.109 752.062 465.891H758.391ZM765.914 463.43L765.211 464.156C764.628 463.589 764.057 463.305 763.5 463.305C763.146 463.305 762.841 463.422 762.586 463.656C762.336 463.891 762.211 464.164 762.211 464.477C762.211 464.753 762.315 465.016 762.523 465.266C762.732 465.521 763.169 465.82 763.836 466.164C764.648 466.586 765.201 466.992 765.492 467.383C765.779 467.779 765.922 468.224 765.922 468.719C765.922 469.417 765.677 470.008 765.188 470.492C764.698 470.977 764.086 471.219 763.352 471.219C762.862 471.219 762.393 471.112 761.945 470.898C761.503 470.685 761.135 470.391 760.844 470.016L761.531 469.234C762.089 469.865 762.68 470.18 763.305 470.18C763.742 470.18 764.115 470.039 764.422 469.758C764.729 469.477 764.883 469.146 764.883 468.766C764.883 468.453 764.781 468.174 764.578 467.93C764.375 467.69 763.917 467.388 763.203 467.023C762.438 466.628 761.917 466.237 761.641 465.852C761.365 465.466 761.227 465.026 761.227 464.531C761.227 463.885 761.445 463.349 761.883 462.922C762.326 462.495 762.883 462.281 763.555 462.281C764.336 462.281 765.122 462.664 765.914 463.43ZM768.812 459.344H769.914V462.5H771.648V463.438H769.914V471H768.812V463.438H767.32V462.5H768.812V459.344ZM773.664 459C773.914 459 774.128 459.089 774.305 459.266C774.482 459.443 774.57 459.656 774.57 459.906C774.57 460.151 774.482 460.362 774.305 460.539C774.128 460.716 773.914 460.805 773.664 460.805C773.419 460.805 773.208 460.716 773.031 460.539C772.854 460.362 772.766 460.151 772.766 459.906C772.766 459.656 772.854 459.443 773.031 459.266C773.208 459.089 773.419 459 773.664 459ZM773.117 462.5H774.219V471H773.117V462.5ZM776.484 462.5H777.578V464.023C778.016 463.44 778.5 463.005 779.031 462.719C779.562 462.427 780.141 462.281 780.766 462.281C781.401 462.281 781.964 462.443 782.453 462.766C782.948 463.089 783.312 463.523 783.547 464.07C783.781 464.617 783.898 465.469 783.898 466.625V471H782.812V466.945C782.812 465.966 782.771 465.312 782.688 464.984C782.557 464.422 782.312 464 781.953 463.719C781.594 463.432 781.125 463.289 780.547 463.289C779.885 463.289 779.292 463.508 778.766 463.945C778.245 464.383 777.901 464.924 777.734 465.57C777.63 465.992 777.578 466.763 777.578 467.883V471H776.484V462.5ZM793.57 462.5H794.672V469.273C794.672 470.466 794.568 471.339 794.359 471.891C794.073 472.672 793.576 473.273 792.867 473.695C792.159 474.117 791.307 474.328 790.312 474.328C789.583 474.328 788.927 474.224 788.344 474.016C787.766 473.812 787.294 473.536 786.93 473.188C786.565 472.844 786.229 472.339 785.922 471.672H787.109C787.432 472.234 787.849 472.651 788.359 472.922C788.87 473.193 789.503 473.328 790.258 473.328C791.003 473.328 791.63 473.188 792.141 472.906C792.656 472.63 793.023 472.281 793.242 471.859C793.461 471.438 793.57 470.758 793.57 469.82V469.383C793.159 469.904 792.656 470.305 792.062 470.586C791.469 470.862 790.839 471 790.172 471C789.391 471 788.656 470.807 787.969 470.422C787.281 470.031 786.75 469.508 786.375 468.852C786 468.195 785.812 467.474 785.812 466.688C785.812 465.901 786.008 465.169 786.398 464.492C786.789 463.81 787.328 463.271 788.016 462.875C788.708 462.479 789.438 462.281 790.203 462.281C790.839 462.281 791.43 462.414 791.977 462.68C792.529 462.94 793.06 463.372 793.57 463.977V462.5ZM790.344 463.336C789.724 463.336 789.148 463.487 788.617 463.789C788.086 464.086 787.669 464.5 787.367 465.031C787.065 465.557 786.914 466.128 786.914 466.742C786.914 467.674 787.227 468.445 787.852 469.055C788.477 469.664 789.286 469.969 790.281 469.969C791.286 469.969 792.094 469.667 792.703 469.062C793.318 468.458 793.625 467.664 793.625 466.68C793.625 466.039 793.484 465.469 793.203 464.969C792.922 464.464 792.523 464.065 792.008 463.773C791.492 463.482 790.938 463.336 790.344 463.336Z" fill="white"></path><path d="M854.539 563L856.172 551.508H856.359L861.031 560.938L865.656 551.508H865.844L867.492 563H866.359L865.234 554.781L861.172 563H860.883L856.766 554.719L855.648 563H854.539ZM878.055 554.5V563H876.977V561.539C876.518 562.096 876.003 562.516 875.43 562.797C874.862 563.078 874.24 563.219 873.562 563.219C872.359 563.219 871.331 562.784 870.477 561.914C869.628 561.039 869.203 559.977 869.203 558.727C869.203 557.503 869.633 556.456 870.492 555.586C871.352 554.716 872.385 554.281 873.594 554.281C874.292 554.281 874.922 554.43 875.484 554.727C876.052 555.023 876.549 555.469 876.977 556.062V554.5H878.055ZM873.68 555.336C873.07 555.336 872.508 555.487 871.992 555.789C871.477 556.086 871.065 556.505 870.758 557.047C870.456 557.589 870.305 558.161 870.305 558.766C870.305 559.365 870.458 559.938 870.766 560.484C871.073 561.031 871.484 561.458 872 561.766C872.521 562.068 873.078 562.219 873.672 562.219C874.271 562.219 874.839 562.068 875.375 561.766C875.911 561.464 876.323 561.055 876.609 560.539C876.901 560.023 877.047 559.443 877.047 558.797C877.047 557.812 876.721 556.99 876.07 556.328C875.424 555.667 874.628 555.336 873.68 555.336ZM880.906 551C881.156 551 881.37 551.089 881.547 551.266C881.724 551.443 881.812 551.656 881.812 551.906C881.812 552.151 881.724 552.362 881.547 552.539C881.37 552.716 881.156 552.805 880.906 552.805C880.661 552.805 880.451 552.716 880.273 552.539C880.096 552.362 880.008 552.151 880.008 551.906C880.008 551.656 880.096 551.443 880.273 551.266C880.451 551.089 880.661 551 880.906 551ZM880.359 554.5H881.461V563H880.359V554.5ZM883.727 554.5H884.82V556.023C885.258 555.44 885.742 555.005 886.273 554.719C886.805 554.427 887.383 554.281 888.008 554.281C888.643 554.281 889.206 554.443 889.695 554.766C890.19 555.089 890.555 555.523 890.789 556.07C891.023 556.617 891.141 557.469 891.141 558.625V563H890.055V558.945C890.055 557.966 890.013 557.312 889.93 556.984C889.799 556.422 889.555 556 889.195 555.719C888.836 555.432 888.367 555.289 887.789 555.289C887.128 555.289 886.534 555.508 886.008 555.945C885.487 556.383 885.143 556.924 884.977 557.57C884.872 557.992 884.82 558.763 884.82 559.883V563H883.727V554.5ZM894.445 551.344H895.547V554.5H897.281V555.438H895.547V563H894.445V555.438H892.953V554.5H894.445V551.344ZM906.07 560.18L906.992 560.664C906.69 561.258 906.341 561.737 905.945 562.102C905.549 562.466 905.104 562.745 904.609 562.938C904.115 563.125 903.555 563.219 902.93 563.219C901.544 563.219 900.461 562.766 899.68 561.859C898.898 560.948 898.508 559.919 898.508 558.773C898.508 557.695 898.839 556.734 899.5 555.891C900.339 554.818 901.461 554.281 902.867 554.281C904.315 554.281 905.471 554.831 906.336 555.93C906.951 556.706 907.263 557.674 907.273 558.836H899.633C899.654 559.826 899.969 560.638 900.578 561.273C901.188 561.904 901.94 562.219 902.836 562.219C903.268 562.219 903.688 562.143 904.094 561.992C904.505 561.841 904.854 561.641 905.141 561.391C905.427 561.141 905.737 560.737 906.07 560.18ZM906.07 557.891C905.924 557.307 905.711 556.841 905.43 556.492C905.154 556.143 904.786 555.862 904.328 555.648C903.87 555.435 903.388 555.328 902.883 555.328C902.049 555.328 901.333 555.596 900.734 556.133C900.297 556.523 899.966 557.109 899.742 557.891H906.07ZM909.32 554.5H910.414V556.023C910.852 555.44 911.336 555.005 911.867 554.719C912.398 554.427 912.977 554.281 913.602 554.281C914.237 554.281 914.799 554.443 915.289 554.766C915.784 555.089 916.148 555.523 916.383 556.07C916.617 556.617 916.734 557.469 916.734 558.625V563H915.648V558.945C915.648 557.966 915.607 557.312 915.523 556.984C915.393 556.422 915.148 556 914.789 555.719C914.43 555.432 913.961 555.289 913.383 555.289C912.721 555.289 912.128 555.508 911.602 555.945C911.081 556.383 910.737 556.924 910.57 557.57C910.466 557.992 910.414 558.763 910.414 559.883V563H909.32V554.5ZM927.555 554.5V563H926.477V561.539C926.018 562.096 925.503 562.516 924.93 562.797C924.362 563.078 923.74 563.219 923.062 563.219C921.859 563.219 920.831 562.784 919.977 561.914C919.128 561.039 918.703 559.977 918.703 558.727C918.703 557.503 919.133 556.456 919.992 555.586C920.852 554.716 921.885 554.281 923.094 554.281C923.792 554.281 924.422 554.43 924.984 554.727C925.552 555.023 926.049 555.469 926.477 556.062V554.5H927.555ZM923.18 555.336C922.57 555.336 922.008 555.487 921.492 555.789C920.977 556.086 920.565 556.505 920.258 557.047C919.956 557.589 919.805 558.161 919.805 558.766C919.805 559.365 919.958 559.938 920.266 560.484C920.573 561.031 920.984 561.458 921.5 561.766C922.021 562.068 922.578 562.219 923.172 562.219C923.771 562.219 924.339 562.068 924.875 561.766C925.411 561.464 925.823 561.055 926.109 560.539C926.401 560.023 926.547 559.443 926.547 558.797C926.547 557.812 926.221 556.99 925.57 556.328C924.924 555.667 924.128 555.336 923.18 555.336ZM930.023 554.5H931.117V556.023C931.555 555.44 932.039 555.005 932.57 554.719C933.102 554.427 933.68 554.281 934.305 554.281C934.94 554.281 935.503 554.443 935.992 554.766C936.487 555.089 936.852 555.523 937.086 556.07C937.32 556.617 937.438 557.469 937.438 558.625V563H936.352V558.945C936.352 557.966 936.31 557.312 936.227 556.984C936.096 556.422 935.852 556 935.492 555.719C935.133 555.432 934.664 555.289 934.086 555.289C933.424 555.289 932.831 555.508 932.305 555.945C931.784 556.383 931.44 556.924 931.273 557.57C931.169 557.992 931.117 558.763 931.117 559.883V563H930.023V554.5ZM948.039 556.266L947.172 556.805C946.422 555.81 945.398 555.312 944.102 555.312C943.065 555.312 942.203 555.646 941.516 556.312C940.833 556.979 940.492 557.789 940.492 558.742C940.492 559.362 940.648 559.945 940.961 560.492C941.279 561.039 941.711 561.464 942.258 561.766C942.81 562.068 943.427 562.219 944.109 562.219C945.359 562.219 946.38 561.721 947.172 560.727L948.039 561.297C947.633 561.906 947.086 562.38 946.398 562.719C945.716 563.052 944.938 563.219 944.062 563.219C942.719 563.219 941.604 562.792 940.719 561.938C939.833 561.083 939.391 560.044 939.391 558.82C939.391 557.997 939.596 557.234 940.008 556.531C940.424 555.823 940.995 555.271 941.719 554.875C942.443 554.479 943.253 554.281 944.148 554.281C944.711 554.281 945.253 554.367 945.773 554.539C946.299 554.711 946.745 554.935 947.109 555.211C947.474 555.487 947.784 555.839 948.039 556.266ZM957.305 560.18L958.227 560.664C957.924 561.258 957.576 561.737 957.18 562.102C956.784 562.466 956.339 562.745 955.844 562.938C955.349 563.125 954.789 563.219 954.164 563.219C952.779 563.219 951.695 562.766 950.914 561.859C950.133 560.948 949.742 559.919 949.742 558.773C949.742 557.695 950.073 556.734 950.734 555.891C951.573 554.818 952.695 554.281 954.102 554.281C955.549 554.281 956.706 554.831 957.57 555.93C958.185 556.706 958.497 557.674 958.508 558.836H950.867C950.888 559.826 951.203 560.638 951.812 561.273C952.422 561.904 953.174 562.219 954.07 562.219C954.503 562.219 954.922 562.143 955.328 561.992C955.74 561.841 956.089 561.641 956.375 561.391C956.661 561.141 956.971 560.737 957.305 560.18ZM957.305 557.891C957.159 557.307 956.945 556.841 956.664 556.492C956.388 556.143 956.021 555.862 955.562 555.648C955.104 555.435 954.622 555.328 954.117 555.328C953.284 555.328 952.568 555.596 951.969 556.133C951.531 556.523 951.201 557.109 950.977 557.891H957.305Z" fill="white"></path><path d="M614 358.641L613.094 359.336C612.594 358.685 611.992 358.193 611.289 357.859C610.591 357.521 609.823 357.352 608.984 357.352C608.068 357.352 607.219 357.573 606.438 358.016C605.656 358.453 605.049 359.044 604.617 359.789C604.19 360.529 603.977 361.362 603.977 362.289C603.977 363.69 604.456 364.859 605.414 365.797C606.378 366.734 607.591 367.203 609.055 367.203C610.664 367.203 612.01 366.573 613.094 365.312L614 366C613.427 366.729 612.711 367.294 611.852 367.695C610.997 368.091 610.042 368.289 608.984 368.289C606.974 368.289 605.388 367.62 604.227 366.281C603.253 365.151 602.766 363.786 602.766 362.188C602.766 360.505 603.354 359.091 604.531 357.945C605.714 356.794 607.193 356.219 608.969 356.219C610.042 356.219 611.01 356.432 611.875 356.859C612.74 357.281 613.448 357.875 614 358.641ZM620.156 359.281C621.464 359.281 622.547 359.755 623.406 360.703C624.188 361.568 624.578 362.591 624.578 363.773C624.578 364.961 624.164 366 623.336 366.891C622.513 367.776 621.453 368.219 620.156 368.219C618.854 368.219 617.789 367.776 616.961 366.891C616.138 366 615.727 364.961 615.727 363.773C615.727 362.596 616.117 361.576 616.898 360.711C617.758 359.758 618.844 359.281 620.156 359.281ZM620.156 360.352C619.25 360.352 618.471 360.688 617.82 361.359C617.169 362.031 616.844 362.844 616.844 363.797C616.844 364.411 616.992 364.984 617.289 365.516C617.586 366.047 617.987 366.458 618.492 366.75C618.997 367.036 619.552 367.18 620.156 367.18C620.76 367.18 621.315 367.036 621.82 366.75C622.326 366.458 622.727 366.047 623.023 365.516C623.32 364.984 623.469 364.411 623.469 363.797C623.469 362.844 623.141 362.031 622.484 361.359C621.833 360.688 621.057 360.352 620.156 360.352ZM635.102 356.219V368H634.023V366.539C633.565 367.096 633.049 367.516 632.477 367.797C631.909 368.078 631.286 368.219 630.609 368.219C629.406 368.219 628.378 367.784 627.523 366.914C626.674 366.039 626.25 364.977 626.25 363.727C626.25 362.503 626.68 361.456 627.539 360.586C628.398 359.716 629.432 359.281 630.641 359.281C631.339 359.281 631.969 359.43 632.531 359.727C633.099 360.023 633.596 360.469 634.023 361.062V356.219H635.102ZM630.727 360.336C630.117 360.336 629.555 360.487 629.039 360.789C628.523 361.086 628.112 361.505 627.805 362.047C627.503 362.589 627.352 363.161 627.352 363.766C627.352 364.365 627.505 364.938 627.812 365.484C628.12 366.031 628.531 366.458 629.047 366.766C629.568 367.068 630.125 367.219 630.719 367.219C631.318 367.219 631.885 367.068 632.422 366.766C632.958 366.464 633.37 366.055 633.656 365.539C633.948 365.023 634.094 364.443 634.094 363.797C634.094 362.812 633.768 361.99 633.117 361.328C632.471 360.667 631.674 360.336 630.727 360.336ZM637.969 356C638.219 356 638.432 356.089 638.609 356.266C638.786 356.443 638.875 356.656 638.875 356.906C638.875 357.151 638.786 357.362 638.609 357.539C638.432 357.716 638.219 357.805 637.969 357.805C637.724 357.805 637.513 357.716 637.336 357.539C637.159 357.362 637.07 357.151 637.07 356.906C637.07 356.656 637.159 356.443 637.336 356.266C637.513 356.089 637.724 356 637.969 356ZM637.422 359.5H638.523V368H637.422V359.5ZM640.789 359.5H641.883V361.023C642.32 360.44 642.805 360.005 643.336 359.719C643.867 359.427 644.445 359.281 645.07 359.281C645.706 359.281 646.268 359.443 646.758 359.766C647.253 360.089 647.617 360.523 647.852 361.07C648.086 361.617 648.203 362.469 648.203 363.625V368H647.117V363.945C647.117 362.966 647.076 362.312 646.992 361.984C646.862 361.422 646.617 361 646.258 360.719C645.898 360.432 645.43 360.289 644.852 360.289C644.19 360.289 643.596 360.508 643.07 360.945C642.549 361.383 642.206 361.924 642.039 362.57C641.935 362.992 641.883 363.763 641.883 364.883V368H640.789V359.5ZM657.875 359.5H658.977V366.273C658.977 367.466 658.872 368.339 658.664 368.891C658.378 369.672 657.88 370.273 657.172 370.695C656.464 371.117 655.612 371.328 654.617 371.328C653.888 371.328 653.232 371.224 652.648 371.016C652.07 370.812 651.599 370.536 651.234 370.188C650.87 369.844 650.534 369.339 650.227 368.672H651.414C651.737 369.234 652.154 369.651 652.664 369.922C653.174 370.193 653.807 370.328 654.562 370.328C655.307 370.328 655.935 370.188 656.445 369.906C656.961 369.63 657.328 369.281 657.547 368.859C657.766 368.438 657.875 367.758 657.875 366.82V366.383C657.464 366.904 656.961 367.305 656.367 367.586C655.773 367.862 655.143 368 654.477 368C653.695 368 652.961 367.807 652.273 367.422C651.586 367.031 651.055 366.508 650.68 365.852C650.305 365.195 650.117 364.474 650.117 363.688C650.117 362.901 650.312 362.169 650.703 361.492C651.094 360.81 651.633 360.271 652.32 359.875C653.013 359.479 653.742 359.281 654.508 359.281C655.143 359.281 655.734 359.414 656.281 359.68C656.833 359.94 657.365 360.372 657.875 360.977V359.5ZM654.648 360.336C654.029 360.336 653.453 360.487 652.922 360.789C652.391 361.086 651.974 361.5 651.672 362.031C651.37 362.557 651.219 363.128 651.219 363.742C651.219 364.674 651.531 365.445 652.156 366.055C652.781 366.664 653.591 366.969 654.586 366.969C655.591 366.969 656.398 366.667 657.008 366.062C657.622 365.458 657.93 364.664 657.93 363.68C657.93 363.039 657.789 362.469 657.508 361.969C657.227 361.464 656.828 361.065 656.312 360.773C655.797 360.482 655.242 360.336 654.648 360.336ZM666.633 356.219L661.859 369.562H660.664L665.43 356.219H666.633ZM575.539 372.508H576.688V384H575.539V372.508ZM579.141 375.5H580.227V376.969C580.607 376.427 580.997 376.031 581.398 375.781C581.951 375.448 582.531 375.281 583.141 375.281C583.552 375.281 583.943 375.362 584.312 375.523C584.682 375.685 584.984 375.901 585.219 376.172C585.453 376.438 585.656 376.82 585.828 377.32C586.193 376.654 586.648 376.148 587.195 375.805C587.742 375.456 588.331 375.281 588.961 375.281C589.549 375.281 590.068 375.43 590.516 375.727C590.969 376.023 591.305 376.438 591.523 376.969C591.742 377.5 591.852 378.297 591.852 379.359V384H590.734V379.359C590.734 378.448 590.669 377.823 590.539 377.484C590.409 377.141 590.185 376.865 589.867 376.656C589.555 376.448 589.18 376.344 588.742 376.344C588.211 376.344 587.724 376.5 587.281 376.812C586.844 377.125 586.523 377.542 586.32 378.062C586.117 378.583 586.016 379.453 586.016 380.672V384H584.93V379.648C584.93 378.622 584.865 377.927 584.734 377.562C584.609 377.193 584.388 376.898 584.07 376.68C583.753 376.456 583.375 376.344 582.938 376.344C582.432 376.344 581.958 376.497 581.516 376.805C581.078 377.107 580.753 377.516 580.539 378.031C580.331 378.547 580.227 379.336 580.227 380.398V384H579.141V375.5ZM594.18 375.5H595.266V377.062C595.698 376.469 596.195 376.023 596.758 375.727C597.32 375.43 597.948 375.281 598.641 375.281C599.849 375.281 600.883 375.716 601.742 376.586C602.602 377.456 603.031 378.503 603.031 379.727C603.031 380.977 602.604 382.039 601.75 382.914C600.901 383.784 599.875 384.219 598.672 384.219C597.995 384.219 597.372 384.078 596.805 383.797C596.237 383.516 595.724 383.096 595.266 382.539V387.109H594.18V375.5ZM598.555 376.336C597.607 376.336 596.807 376.667 596.156 377.328C595.51 377.99 595.188 378.812 595.188 379.797C595.188 380.443 595.331 381.023 595.617 381.539C595.909 382.055 596.323 382.464 596.859 382.766C597.401 383.068 597.971 383.219 598.57 383.219C599.159 383.219 599.711 383.068 600.227 382.766C600.747 382.458 601.161 382.031 601.469 381.484C601.776 380.938 601.93 380.365 601.93 379.766C601.93 379.161 601.776 378.589 601.469 378.047C601.167 377.505 600.758 377.086 600.242 376.789C599.727 376.487 599.164 376.336 598.555 376.336ZM604.922 372.219H606.016V384H604.922V372.219ZM615.445 381.18L616.367 381.664C616.065 382.258 615.716 382.737 615.32 383.102C614.924 383.466 614.479 383.745 613.984 383.938C613.49 384.125 612.93 384.219 612.305 384.219C610.919 384.219 609.836 383.766 609.055 382.859C608.273 381.948 607.883 380.919 607.883 379.773C607.883 378.695 608.214 377.734 608.875 376.891C609.714 375.818 610.836 375.281 612.242 375.281C613.69 375.281 614.846 375.831 615.711 376.93C616.326 377.706 616.638 378.674 616.648 379.836H609.008C609.029 380.826 609.344 381.638 609.953 382.273C610.562 382.904 611.315 383.219 612.211 383.219C612.643 383.219 613.062 383.143 613.469 382.992C613.88 382.841 614.229 382.641 614.516 382.391C614.802 382.141 615.112 381.737 615.445 381.18ZM615.445 378.891C615.299 378.307 615.086 377.841 614.805 377.492C614.529 377.143 614.161 376.862 613.703 376.648C613.245 376.435 612.763 376.328 612.258 376.328C611.424 376.328 610.708 376.596 610.109 377.133C609.672 377.523 609.341 378.109 609.117 378.891H615.445ZM618.688 375.5H619.773V376.969C620.154 376.427 620.544 376.031 620.945 375.781C621.497 375.448 622.078 375.281 622.688 375.281C623.099 375.281 623.49 375.362 623.859 375.523C624.229 375.685 624.531 375.901 624.766 376.172C625 376.438 625.203 376.82 625.375 377.32C625.74 376.654 626.195 376.148 626.742 375.805C627.289 375.456 627.878 375.281 628.508 375.281C629.096 375.281 629.615 375.43 630.062 375.727C630.516 376.023 630.852 376.438 631.07 376.969C631.289 377.5 631.398 378.297 631.398 379.359V384H630.281V379.359C630.281 378.448 630.216 377.823 630.086 377.484C629.956 377.141 629.732 376.865 629.414 376.656C629.102 376.448 628.727 376.344 628.289 376.344C627.758 376.344 627.271 376.5 626.828 376.812C626.391 377.125 626.07 377.542 625.867 378.062C625.664 378.583 625.562 379.453 625.562 380.672V384H624.477V379.648C624.477 378.622 624.411 377.927 624.281 377.562C624.156 377.193 623.935 376.898 623.617 376.68C623.299 376.456 622.922 376.344 622.484 376.344C621.979 376.344 621.505 376.497 621.062 376.805C620.625 377.107 620.299 377.516 620.086 378.031C619.878 378.547 619.773 379.336 619.773 380.398V384H618.688V375.5ZM640.867 381.18L641.789 381.664C641.487 382.258 641.138 382.737 640.742 383.102C640.346 383.466 639.901 383.745 639.406 383.938C638.911 384.125 638.352 384.219 637.727 384.219C636.341 384.219 635.258 383.766 634.477 382.859C633.695 381.948 633.305 380.919 633.305 379.773C633.305 378.695 633.635 377.734 634.297 376.891C635.135 375.818 636.258 375.281 637.664 375.281C639.112 375.281 640.268 375.831 641.133 376.93C641.747 377.706 642.06 378.674 642.07 379.836H634.43C634.451 380.826 634.766 381.638 635.375 382.273C635.984 382.904 636.737 383.219 637.633 383.219C638.065 383.219 638.484 383.143 638.891 382.992C639.302 382.841 639.651 382.641 639.938 382.391C640.224 382.141 640.534 381.737 640.867 381.18ZM640.867 378.891C640.721 378.307 640.508 377.841 640.227 377.492C639.951 377.143 639.583 376.862 639.125 376.648C638.667 376.435 638.185 376.328 637.68 376.328C636.846 376.328 636.13 376.596 635.531 377.133C635.094 377.523 634.763 378.109 634.539 378.891H640.867ZM644.117 375.5H645.211V377.023C645.648 376.44 646.133 376.005 646.664 375.719C647.195 375.427 647.773 375.281 648.398 375.281C649.034 375.281 649.596 375.443 650.086 375.766C650.581 376.089 650.945 376.523 651.18 377.07C651.414 377.617 651.531 378.469 651.531 379.625V384H650.445V379.945C650.445 378.966 650.404 378.312 650.32 377.984C650.19 377.422 649.945 377 649.586 376.719C649.227 376.432 648.758 376.289 648.18 376.289C647.518 376.289 646.924 376.508 646.398 376.945C645.878 377.383 645.534 377.924 645.367 378.57C645.263 378.992 645.211 379.763 645.211 380.883V384H644.117V375.5ZM654.836 372.344H655.938V375.5H657.672V376.438H655.938V384H654.836V376.438H653.344V375.5H654.836V372.344ZM667.773 375.5V384H666.695V382.539C666.237 383.096 665.721 383.516 665.148 383.797C664.581 384.078 663.958 384.219 663.281 384.219C662.078 384.219 661.049 383.784 660.195 382.914C659.346 382.039 658.922 380.977 658.922 379.727C658.922 378.503 659.352 377.456 660.211 376.586C661.07 375.716 662.104 375.281 663.312 375.281C664.01 375.281 664.641 375.43 665.203 375.727C665.771 376.023 666.268 376.469 666.695 377.062V375.5H667.773ZM663.398 376.336C662.789 376.336 662.227 376.487 661.711 376.789C661.195 377.086 660.784 377.505 660.477 378.047C660.174 378.589 660.023 379.161 660.023 379.766C660.023 380.365 660.177 380.938 660.484 381.484C660.792 382.031 661.203 382.458 661.719 382.766C662.24 383.068 662.797 383.219 663.391 383.219C663.99 383.219 664.557 383.068 665.094 382.766C665.63 382.464 666.042 382.055 666.328 381.539C666.62 381.023 666.766 380.443 666.766 379.797C666.766 378.812 666.44 377.99 665.789 377.328C665.143 376.667 664.346 376.336 663.398 376.336ZM671.195 372.344H672.297V375.5H674.031V376.438H672.297V384H671.195V376.438H669.703V375.5H671.195V372.344ZM679.688 375.281C680.995 375.281 682.078 375.755 682.938 376.703C683.719 377.568 684.109 378.591 684.109 379.773C684.109 380.961 683.695 382 682.867 382.891C682.044 383.776 680.984 384.219 679.688 384.219C678.385 384.219 677.32 383.776 676.492 382.891C675.669 382 675.258 380.961 675.258 379.773C675.258 378.596 675.648 377.576 676.43 376.711C677.289 375.758 678.375 375.281 679.688 375.281ZM679.688 376.352C678.781 376.352 678.003 376.688 677.352 377.359C676.701 378.031 676.375 378.844 676.375 379.797C676.375 380.411 676.523 380.984 676.82 381.516C677.117 382.047 677.518 382.458 678.023 382.75C678.529 383.036 679.083 383.18 679.688 383.18C680.292 383.18 680.846 383.036 681.352 382.75C681.857 382.458 682.258 382.047 682.555 381.516C682.852 380.984 683 380.411 683 379.797C683 378.844 682.672 378.031 682.016 377.359C681.365 376.688 680.589 376.352 679.688 376.352ZM686.148 375.5H687.242V377.023C687.68 376.44 688.164 376.005 688.695 375.719C689.227 375.427 689.805 375.281 690.43 375.281C691.065 375.281 691.628 375.443 692.117 375.766C692.612 376.089 692.977 376.523 693.211 377.07C693.445 377.617 693.562 378.469 693.562 379.625V384H692.477V379.945C692.477 378.966 692.435 378.312 692.352 377.984C692.221 377.422 691.977 377 691.617 376.719C691.258 376.432 690.789 376.289 690.211 376.289C689.549 376.289 688.956 376.508 688.43 376.945C687.909 377.383 687.565 377.924 687.398 378.57C687.294 378.992 687.242 379.763 687.242 380.883V384H686.148V375.5Z" fill="white"></path><g opacity="0.5"><line x1="805" y1="559" x2="64" y2="559" stroke="#57595C" stroke-width="2"></line><line x1="63" y1="558" x2="63" y2="96" stroke="#57595C" stroke-width="2"></line><path d="M110.707 96.7071C111.098 96.3166 111.098 95.6834 110.707 95.2929L104.343 88.9289C103.953 88.5384 103.319 88.5384 102.929 88.9289C102.538 89.3195 102.538 89.9526 102.929 90.3431L108.586 96L102.929 101.657C102.538 102.047 102.538 102.681 102.929 103.071C103.319 103.462 103.953 103.462 104.343 103.071L110.707 96.7071ZM62 97L110 97L110 95L62 95L62 97Z" fill="#57595C"></path><line x1="360" y1="97" x2="313" y2="97" stroke="#57595C" stroke-width="2"></line><path d="M359.293 150.707C359.683 151.098 360.317 151.098 360.707 150.707L367.071 144.343C367.462 143.953 367.462 143.319 367.071 142.929C366.681 142.538 366.047 142.538 365.657 142.929L360 148.586L354.343 142.929C353.953 142.538 353.319 142.538 352.929 142.929C352.538 143.319 352.538 143.953 352.929 144.343L359.293 150.707ZM359 96L359 150L361 150L361 96L359 96Z" fill="#57595C"></path><line x1="496" y1="187" x2="449" y2="187" stroke="#57595C" stroke-width="2"></line><path d="M495.293 240.707C495.683 241.098 496.317 241.098 496.707 240.707L503.071 234.343C503.462 233.953 503.462 233.319 503.071 232.929C502.681 232.538 502.047 232.538 501.657 232.929L496 238.586L490.343 232.929C489.953 232.538 489.319 232.538 488.929 232.929C488.538 233.319 488.538 233.953 488.929 234.343L495.293 240.707ZM495 186L495 240L497 240L497 186L495 186Z" fill="#57595C"></path><line x1="783" y1="373" x2="736" y2="373" stroke="#57595C" stroke-width="2"></line><path d="M782.293 430.707C782.683 431.098 783.317 431.098 783.707 430.707L790.071 424.343C790.462 423.953 790.462 423.319 790.071 422.929C789.681 422.538 789.047 422.538 788.657 422.929L783 428.586L777.343 422.929C776.953 422.538 776.319 422.538 775.929 422.929C775.538 423.319 775.538 423.953 775.929 424.343L782.293 430.707ZM782 372L782 430L784 430L784 372L782 372Z" fill="#57595C"></path><line x1="918" y1="467" x2="871" y2="467" stroke="#57595C" stroke-width="2"></line><path d="M917.293 522.707C917.683 523.098 918.317 523.098 918.707 522.707L925.071 516.343C925.462 515.953 925.462 515.319 925.071 514.929C924.681 514.538 924.047 514.538 923.657 514.929L918 520.586L912.343 514.929C911.953 514.538 911.319 514.538 910.929 514.929C910.538 515.319 910.538 515.953 910.929 516.343L917.293 522.707ZM917 466L917 522L919 522L919 466L917 466Z" fill="#57595C"></path><line x1="645" y1="277" x2="589" y2="277" stroke="#57595C" stroke-width="2"></line><path d="M644.293 336.707C644.683 337.098 645.317 337.098 645.707 336.707L652.071 330.343C652.462 329.953 652.462 329.319 652.071 328.929C651.681 328.538 651.047 328.538 650.657 328.929L645 334.586L639.343 328.929C638.953 328.538 638.319 328.538 637.929 328.929C637.538 329.319 637.538 329.953 637.929 330.343L644.293 336.707ZM644 276L644 336L646 336L646 276L644 276Z" fill="#57595C"></path><line x1="199" y1="558" x2="199" y2="186" stroke="#57595C" stroke-width="2"></line><path d="M246.707 186.707C247.098 186.317 247.098 185.683 246.707 185.293L240.343 178.929C239.953 178.538 239.319 178.538 238.929 178.929C238.538 179.319 238.538 179.953 238.929 180.343L244.586 186L238.929 191.657C238.538 192.047 238.538 192.681 238.929 193.071C239.319 193.462 239.953 193.462 240.343 193.071L246.707 186.707ZM198 187L246 187L246 185L198 185L198 187Z" fill="#57595C"></path><line x1="339" y1="558" x2="339" y2="276" stroke="#57595C" stroke-width="2"></line><path d="M386.707 276.707C387.098 276.317 387.098 275.683 386.707 275.293L380.343 268.929C379.953 268.538 379.319 268.538 378.929 268.929C378.538 269.319 378.538 269.953 378.929 270.343L384.586 276L378.929 281.657C378.538 282.047 378.538 282.681 378.929 283.071C379.319 283.462 379.953 283.462 380.343 283.071L386.707 276.707ZM338 277L386 277L386 275L338 275L338 277Z" fill="#57595C"></path><line x1="486" y1="558" x2="486" y2="373" stroke="#57595C" stroke-width="2"></line><path d="M533.707 373.707C534.098 373.317 534.098 372.683 533.707 372.293L527.343 365.929C526.953 365.538 526.319 365.538 525.929 365.929C525.538 366.319 525.538 366.953 525.929 367.343L531.586 373L525.929 378.657C525.538 379.047 525.538 379.681 525.929 380.071C526.319 380.462 526.953 380.462 527.343 380.071L533.707 373.707ZM485 374L533 374L533 372L485 372L485 374Z" fill="#57595C"></path><line x1="621" y1="558" x2="621" y2="466" stroke="#57595C" stroke-width="2"></line><path d="M668.707 466.707C669.098 466.317 669.098 465.683 668.707 465.293L662.343 458.929C661.953 458.538 661.319 458.538 660.929 458.929C660.538 459.319 660.538 459.953 660.929 460.343L666.586 466L660.929 471.657C660.538 472.047 660.538 472.681 660.929 473.071C661.319 473.462 661.953 473.462 662.343 473.071L668.707 466.707ZM620 467L668 467L668 465L620 465L620 467Z" fill="#57595C"></path></g></svg> 